HIERARCHY
ROOT Hips
{
  OFFSET 43.0842 91.1655 101.099
  CHANNELS 6 Xposition Yposition Zposition Zrotation Xrotation Yrotation
  JOINT LeftUpLeg
  {
    OFFSET 8.64259 1.95398 -2.38835
    CHANNELS 3 Zrotation Xrotation Yrotation
    JOINT LeftLeg
    {
      OFFSET 43.7702 0 0
      CHANNELS 3 Zrotation Xrotation Yrotation
      JOINT LeftFoot
      {
        OFFSET 40.6238 0 0
        CHANNELS 3 Zrotation Xrotation Yrotation
        JOINT LeftToeBase
        {
          OFFSET 12.7242 0 0
          CHANNELS 3 Zrotation Xrotation Yrotation
          End Site
          {
            OFFSET 0 0 0
          }
        }
      }
    }
  }
  JOINT RightUpLeg
  {
    OFFSET -8.2249 1.95398 -2.59336
    CHANNELS 3 Zrotation Xrotation Yrotation
    JOINT RightLeg
    {
      OFFSET 43.5653 0 0
      CHANNELS 3 Zrotation Xrotation Yrotation
      JOINT RightFoot
      {
        OFFSET 40.6238 0 0
        CHANNELS 3 Zrotation Xrotation Yrotation
        JOINT RightToeBase
        {
          OFFSET 12.7242 0 0
          CHANNELS 3 Zrotation Xrotation Yrotation
          End Site
          {
            OFFSET 0 0 0
          }
        }
      }
    }
  }
  JOINT Spine
  {
    OFFSET 0.165834 0.87714 6.61349
    CHANNELS 3 Zrotation Xrotation Yrotation
    JOINT Spine1
    {
      OFFSET 7.38963 1.71661e-005 0
      CHANNELS 3 Zrotation Xrotation Yrotation
      JOINT Spine2
      {
        OFFSET 11.9445 1.14441e-005 0
        CHANNELS 3 Zrotation Xrotation Yrotation
        JOINT Spine3
        {
          OFFSET 14.7254 4.19617e-005 0
          CHANNELS 3 Zrotation Xrotation Yrotation
          JOINT Spine4
          {
            OFFSET 10.9679 0 0
            CHANNELS 3 Zrotation Xrotation Yrotation
            JOINT RightShoulder
            {
              OFFSET 2.46616 -1.6653 3.69651
              CHANNELS 3 Zrotation Xrotation Yrotation
              JOINT RightArm
              {
                OFFSET 13.0012 0 0
                CHANNELS 3 Zrotation Xrotation Yrotation
                JOINT RightForeArm
                {
                  OFFSET 28.7848 1.52588e-005 0
                  CHANNELS 3 Zrotation Xrotation Yrotation
                  JOINT RightHand
                  {
                    OFFSET 26.5688 1.52588e-005 0
                    CHANNELS 3 Zrotation Xrotation Yrotation
                    End Site
                    {
                      OFFSET 0 0 0
                    }
                  }
                }
              }
            }
            JOINT LeftShoulder
            {
              OFFSET 2.38034 -1.29275 -3.7523
              CHANNELS 3 Zrotation Xrotation Yrotation
              JOINT LeftArm
              {
                OFFSET 16.3182 6.10351e-005 0
                CHANNELS 3 Zrotation Xrotation Yrotation
                JOINT LeftForeArm
                {
                  OFFSET 27.0901 0 0
                  CHANNELS 3 Zrotation Xrotation Yrotation
                  JOINT LeftHand
                  {
                    OFFSET 24.5451 1.52588e-005 0
                    CHANNELS 3 Zrotation Xrotation Yrotation
                    End Site
                    {
                      OFFSET 0 0 0
                    }
                  }
                }
              }
            }
            JOINT Neck
            {
              OFFSET 5.0226 -0.0266342 0
              CHANNELS 3 Zrotation Xrotation Yrotation
              JOINT Head
              {
                OFFSET 6.69364 2.86102e-005 0
                CHANNELS 3 Zrotation Xrotation Yrotation
                End Site
                {
                  OFFSET 0 0 0
                }
              }
            }
          }
        }
      }
    }
  }
}
MOTION
Frames:	17
Frame Time:	0.0333333
31.2168 89.4831 145.07 95.4667 4.08295 85.607 -174.747 17.5767 104.317 -27.9422 17.497 1.30085 53.943 -7.29867 -13.0848 34.2569 2.43862 8.35029 162.454 20.4698 79.0314 -45.0246 5.61169 3.03912 78.0035 -16.3365 -8.65686 49.8354 -10.4966 -6.41038 0.755595 7.83739 -89.5783 11.1946 1.69997 0.67276 -0.475352 1.72791 0.597269 -23.0158 1.41918 1.15263 -3.00312 1.41918 1.15262 94.2985 -36.4667 -96.6391 28.1126 -11.0039 -23.5801 13.8313 -12.9131 -115.873 9.83045 3.95779 0.609408 -90.3428 -47.6081 77.6761 -4.89825 -11.6428 -63.861 -13.2795 14.8166 -108.318 26.9349 3.50855 2.59696 -24.2447 -11.0208 -2.55677 4.15669 -12.6073 -16.6678 
30.5984 88.6987 145.802 96.028 4.51991 85.7393 -174.476 17.2657 104.719 -28.0296 16.7835 1.1784 57.5345 -4.57741 -13.1952 35.2926 2.3205 11.117 162.816 21.3089 80.2213 -47.4007 3.81574 2.36719 77.5999 -17.0721 -12.5445 49.599 -10.1694 -7.92307 0.356993 7.86462 -89.4252 11.139 0.977648 1.04874 -0.531954 1.02285 1.00469 -23.0651 0.617275 1.29405 -3.05244 0.617281 1.29404 94.8106 -35.9868 -95.7921 26.1048 -3.6324 -22.1625 13.6234 -14.0997 -118.885 8.69423 3.77308 1.21742 -90.1159 -47.1665 77.9231 -3.18801 -8.37517 -61.4165 -11.5908 11.9392 -110.049 25.3719 3.23742 2.32233 -26.9439 -9.09887 -4.35717 6.01504 -11.0847 -15.4416 
29.7329 88.1125 146.015 96.3964 4.11359 86.0262 -174.681 17.2191 104.86 -28.6375 14.3956 1.57915 59.8403 -2.89018 -13.5562 36.1152 3.50154 11.2434 163.495 22.0086 81.1054 -48.6231 4.57704 1.7697 77.7686 -17.7335 -12.8732 50.0115 -10.3941 -8.11254 0.047907 7.95218 -89.4461 10.967 0.35193 1.06865 -0.704318 0.398608 1.05212 -23.236 0.0144857 1.125 -3.22339 0.0145025 1.125 95.9556 -32.4184 -94.3022 25.1811 3.97494 -22.5247 13.1633 -14.3545 -121.508 8.54696 3.77267 1.41664 -90.9573 -47.994 76.8292 -3.85107 -7.14274 -59.9073 -9.26327 12.294 -111.38 25.4946 3.27763 2.89423 -28.5613 -8.01171 -4.13858 7.45398 -10.203 -15.1154 
28.9126 88.0334 145.775 96.0131 3.35959 86.3811 -174.718 17.1742 104.856 -27.6814 12.2354 1.73397 60.0334 -2.74891 -14.0425 37.0702 5.83785 9.55317 163.962 23.0301 81.5297 -48.7499 2.77076 1.80581 77.1565 -17.0663 -14.3598 49.6974 -10.1979 -8.17224 -0.132543 7.97409 -89.5186 10.9247 -0.0411445 0.961582 -0.746568 0.00123509 0.962453 -23.2792 -0.328227 0.904766 -3.26651 -0.32822 0.904772 97.1493 -29.0291 -92.5177 25.3735 11.0888 -23.5455 12.1513 -14.6411 -125.432 7.08315 3.62391 2.74544 -92.9099 -49.8603 74.3597 -3.41276 -5.41805 -60.2158 -8.5051 12.2072 -110.523 24.3795 3.04604 1.07111 -29.5523 -7.56452 -4.75386 8.28943 -9.88818 -14.2331 
28.2317 88.0856 145.28 95.5026 1.6506 86.2908 -174.532 16.9618 104.489 -27.1363 11.0209 1.36819 61.1137 -2.10241 -13.1065 37.6538 6.58677 9.72873 164.681 24.2606 81.4213 -48.5138 1.36798 1.64633 76.6568 -16.7938 -14.7393 49.8802 -10.187 -9.14047 -0.25141 7.97656 -89.4605 10.9207 -0.25093 1.0968 -0.750651 -0.202421 1.10677 -23.283 -0.568968 0.970693 -3.27031 -0.568941 0.970695 97.8479 -28.23 -91.1859 25.4998 16.2963 -25.1746 9.32431 -13.0218 -130.449 5.81543 3.41578 3.61831 -94.6187 -50.9514 72.1394 -2.69936 -2.44346 -60.7178 -7.06209 11.2284 -109.239 22.4512 2.75666 1.10473 -30.1961 -7.23779 -6.70298 8.55998 -9.73075 -12.9472 
27.4951 88.2946 144.473 94.6385 -0.854521 86.1006 -174.338 16.6884 103.914 -26.962 11.6912 0.940291 61.5589 -1.55215 -11.0152 38.5275 7.8634 9.68265 166.389 25.6219 81.3376 -47.5895 1.2445 0.976324 76.3273 -16.3672 -14.4088 49.747 -10.132 -8.92923 -0.392791 7.94035 -89.404 10.9944 -0.50588 1.23419 -0.677032 -0.451044 1.25525 -23.2095 -0.853403 1.02513 -3.19684 -0.853372 1.02513 97.9963 -27.0219 -91.0543 27.6481 20.6743 -27.9055 6.19154 -11.3017 -134.265 6.4865 3.72213 4.11755 -95.0943 -50.902 71.4314 -4.88875 -0.796415 -60.9809 -4.78744 12.1499 -107.852 21.5321 2.61728 -0.0428856 -30.1067 -7.18573 -7.04193 7.85937 -9.60291 -12.5942 
26.9836 88.7177 143.535 93.9433 -3.46307 86.2737 -174.237 16.4557 103.772 -27.6384 12.1573 0.923565 62.6027 -0.272832 -9.76037 37.4387 5.85255 10.5529 168.375 26.0941 81.6386 -45.7614 1.44512 0.294591 75.8046 -15.8488 -13.8732 49.5353 -9.97013 -9.17442 -0.567508 7.94158 -89.3915 10.9943 -0.847872 1.29161 -0.677064 -0.790203 1.32766 -23.2111 -1.19685 0.9771 -3.1985 -1.19682 0.977105 98.0952 -26.9625 -90.8509 29.855 22.4372 -30.8895 4.99989 -10.2152 -136.809 5.13433 3.45426 4.93453 -95.0225 -50.3378 71.3725 -7.29385 -0.153523 -61.9813 -4.8824 13.755 -106.196 22.5546 2.76468 -0.19062 -30.1048 -7.10289 -7.60313 7.83723 -9.48526 -11.6247 
26.7306 89.1343 142.43 93.4414 -6.16298 86.5926 -173.946 15.9117 104.171 -28.3211 14.1981 0.816697 61.5088 -1.71725 -6.82255 36.4043 4.75591 9.76266 170.19 25.8633 81.9143 -43.3946 1.88582 -0.384862 75.8857 -16.1078 -12.317 49.391 -9.81731 -9.66398 -0.736119 7.93445 -89.4514 11.0105 -1.21107 1.20742 -0.660476 -1.15678 1.25955 -23.1979 -1.51797 0.787602 -3.18529 -1.51797 0.787607 98.0686 -26.5925 -90.9646 33.0407 26.1066 -33.3926 2.76047 -10.4662 -138.74 5.17357 3.61665 5.71421 -94.8622 -50.4388 71.6365 -8.66037 -0.285362 -63.6193 -5.36672 14.8994 -104.771 23.5336 2.9037 -0.150798 -30.554 -7.43014 -7.38311 8.42376 -9.9406 -12.1313 
26.5029 89.5418 141.181 92.8209 -9.15091 87.1375 -173.42 14.6373 104.975 -27.5701 16.9579 0.6241 60.4742 -3.16456 -2.67746 34.4512 2.06007 9.45217 171.896 25.5334 82.3182 -40.4621 2.00403 -0.89949 76.0895 -16.4021 -10.347 49.8825 -10.0429 -10.2938 -0.821727 7.87382 -89.5003 11.1329 -1.40349 1.13125 -0.537855 -1.35233 1.19191 -23.0775 -1.67857 0.657081 -3.06482 -1.67858 0.657075 98.1904 -26.7703 -90.6725 34.3161 26.8384 -34.4182 1.62108 -8.29894 -139.602 5.87627 3.83595 5.65179 -95.2982 -49.975 70.8599 -10.336 -0.145558 -64.8753 -3.06271 15.6902 -103.906 23.6448 2.9122 -0.588264 -31.6451 -7.93676 -8.39258 9.14344 -10.7457 -11.9962 
26.4505 89.9796 139.751 92.3742 -12.03 87.8351 -172.655 13.448 105.706 -27.424 17.5865 0.337358 60.9785 -2.97406 0.946798 33.155 0.14792 9.41431 172.967 24.739 82.6045 -36.914 1.99283 -1.10884 76.4221 -17.0512 -8.83246 49.4792 -9.63895 -11.4349 -0.925825 7.82156 -89.5864 11.2382 -1.65011 0.986038 -0.432165 -1.6051 1.05771 -22.9749 -1.87013 0.444404 -2.96221 -1.87016 0.444398 98.4925 -25.8426 -90.1533 36.5445 26.8086 -35.2454 1.88402 -8.22913 -139.726 5.454 3.71713 5.75214 -95.6377 -50.096 70.3968 -11.2884 -0.96525 -65.8885 -1.68511 17.2606 -103.304 24.8805 3.06864 -1.26544 -32.1196 -8.55959 -8.92545 9.25309 -11.5009 -11.9174 
26.4299 90.3764 138.181 92.1312 -14.3714 88.5884 -171.907 12.2351 106.185 -27.5003 16.9996 0.238717 60.8884 -2.90438 1.57329 33.3058 0.300781 9.53185 173.523 24.1619 82.5754 -34.1053 2.03225 -1.08636 76.1915 -16.7754 -7.06689 49.8598 -9.7912 -12.1492 -1.10191 7.8282 -89.6684 11.2262 -2.03878 0.86107 -0.44351 -1.99886 0.949989 -22.9912 -2.20326 0.208264 -2.9786 -2.20326 0.20826 98.4552 -26.3344 -90.1642 37.4532 28.5459 -36.3623 0.154051 -7.4787 -140.344 6.00588 4.03088 6.4113 -95.1157 -49.5257 70.9949 -11.4787 -0.436608 -67.1846 -2.03889 17.1391 -102.666 24.1564 2.95131 -2.27599 -31.1888 -9.09885 -8.83919 8.14524 -11.9402 -12.8756 
26.5147 90.6757 136.455 92.1775 -16.9068 89.3876 -171.25 10.6144 106.177 -27.7519 16.0783 0.367253 61.3881 -1.71567 -0.977662 34.3667 0.852785 11.196 174.086 23.3436 82.5472 -31.1262 1.99792 -1.1571 76.0381 -16.6812 -5.87195 49.6771 -9.64808 -12.3304 -1.17597 7.80241 -89.7434 11.2777 -2.22073 0.731304 -0.391617 -2.18638 0.828362 -22.942 -2.33781 0.029714 -2.92934 -2.3378 0.0297182 98.4521 -26.4707 -90.1521 38.4404 29.7973 -36.7077 -0.0663005 -7.94635 -140.522 6.11585 4.10866 6.60243 -94.3022 -49.0239 72.0555 -12.25 -0.164913 -68.4225 -1.94569 18.0309 -102.61 23.6425 2.8995 -1.52331 -30.9169 -9.22601 -8.82675 7.8585 -12.0105 -12.8804 
26.5975 90.6617 134.52 91.8395 -19.865 89.9297 -170.612 9.02055 105.917 -26.5119 14.0047 0.0861885 62.5867 0.140603 -1.82857 35.6177 3.31221 10.2739 174.819 23.1552 82.4949 -28.0143 3.08003 -1.28891 76.1909 -16.9224 -4.17879 49.7493 -9.76509 -11.8024 -1.14901 7.74175 -89.8093 11.3977 -2.19725 0.601223 -0.271535 -2.16867 0.697379 -22.8216 -2.27633 -0.0872884 -2.80897 -2.27631 -0.0872814 98.4933 -26.1603 -90.106 39.5026 30.8319 -36.9509 1.35154 -9.33752 -140.955 6.58538 4.47655 7.61312 -93.8927 -48.5238 72.5249 -12.6664 0.371925 -69.2232 -2.46478 18.152 -102.438 23.4119 2.87976 -0.73499 -30.2601 -9.52288 -9.04191 7.49023 -12.1704 -12.2435 
26.7205 90.8108 132.423 92.2574 -22.5022 90.4935 -170.111 7.33785 105.367 -25.1322 12.5348 -0.416044 62.5224 -0.693199 -0.0242891 37.0523 6.19653 8.81059 175.107 21.9056 82.0931 -24.0477 2.94644 -1.37053 75.6545 -17.097 -3.68087 49.9386 -10.0503 -10.5235 -1.14804 7.73374 -89.8564 11.4133 -2.21723 0.509812 -0.25585 -2.19265 0.606941 -22.8062 -2.2679 -0.18047 -2.79357 -2.26789 -0.180476 98.4752 -26.2035 -90.1386 39.6218 30.447 -36.9356 1.28051 -9.04998 -140.708 5.97348 4.08996 6.74831 -93.8599 -48.4172 72.5442 -13.1015 0.551971 -69.1 -2.32709 18.4045 -102.534 23.6112 2.9165 0.00390867 -30.0765 -9.60062 -8.98284 7.3755 -12.1771 -11.8949 
26.6592 90.7207 130.201 92.4575 -24.8208 91.2322 -169.34 7.07261 104.969 -25.7192 10.8712 -1.33394 64.0893 0.835893 1.83113 38.4417 8.59315 7.87091 175.754 20.7283 81.9857 -19.6961 3.44098 -1.49756 75.2622 -17.6795 -2.64237 49.8465 -9.84665 -11.6506 -1.13383 7.75904 -89.9598 11.3605 -2.23741 0.304545 -0.308572 -2.22182 0.402759 -22.8589 -2.22543 -0.382309 -2.84629 -2.22545 -0.382319 98.5794 -25.7454 -89.9753 40.5138 29.5674 -37.1617 0.565103 -8.54249 -140.33 5.05167 3.65076 6.10553 -94.2979 -48.9527 72.0413 -12.6783 0.472524 -69.1419 -1.45847 18.0947 -102.463 23.5297 2.88551 -1.44497 -29.1809 -9.67666 -8.84078 6.97241 -12.0562 -11.3504 
26.4538 90.6797 127.754 92.7162 -26.3545 91.5779 -169.52 6.74154 103.583 -26.0182 12.0243 -1.79363 65.0377 2.47188 6.42314 39.3598 9.80488 7.96473 176.245 19.9033 81.2638 -16.0782 4.1759 -1.75724 74.5839 -17.5722 -0.829204 49.1486 -9.30266 -12.3216 -1.1949 7.78014 -89.9476 11.3193 -2.35348 0.339213 -0.349598 -2.33625 0.44251 -22.9016 -2.34655 -0.38418 -2.88899 -2.34654 -0.384193 98.3141 -26.6119 -90.4349 40.98 29.8093 -36.9197 0.618422 -9.22347 -140.187 5.21588 3.84618 6.82957 -94.3486 -49.0927 72.0058 -12.3942 1.25152 -68.4073 -0.854268 17.4763 -102.745 23.173 2.83903 -1.46934 -29.3487 -9.43433 -9.22564 6.90631 -11.8114 -10.7924 
26.1455 90.7061 125.207 92.7379 -27.4662 91.6147 -169.855 6.80619 101.965 -26.27 13.9021 -2.21304 65.5733 4.55052 10.3125 40.0813 10.3583 8.96951 176.546 20.3665 80.2811 -13.8682 6.0974 -2.16744 71.993 -14.8019 2.89901 47.1382 -8.13406 -11.3355 -1.11975 7.8366 -89.9136 11.2061 -2.18847 0.386835 -0.463055 -2.16929 0.482814 -23.0129 -2.20348 -0.289095 -3.00027 -2.20349 -0.289103 98.4864 -28.7935 -89.7652 40.3833 31.3242 -36.6131 0.893248 -10.2184 -139.814 5.04724 3.76663 6.71481 -94.2794 -48.1912 71.8477 -14.0958 1.65207 -69.1135 -1.19563 19.1041 -101.654 23.354 2.8605 -2.02065 -29.5421 -9.44217 -12.2276 7.7647 -12.0804 -8.81598 
